<svg xmlns="http://www.w3.org/2000/svg" version="1.1" xmlns:xlink="http://www.w3.org/1999/xlink" width="512" height="512" x="0" y="0" viewBox="0 0 512 512" style="enable-background:new 0 0 512 512" xml:space="preserve" class=""><g><path d="M22.201 327.811c11.437 39.128 32.581 74.981 62.209 104.609 46.481 46.481 108.282 72.08 174.017 72.08 48.166 0 94.21-13.76 133.673-39.392l13.593 13.593c5.176 5.176 14.015 2.808 15.91-4.263l25.183-93.985c1.895-7.071-4.576-13.542-11.647-11.647l-93.985 25.183c-7.071 1.895-9.439 10.734-4.263 15.91l14.141 14.141c-72.236 40.352-165.448 29.866-226.778-31.464C53 321.321 50.372 207.03 116.369 132.601M75.267 94.023c-40.684 45.221-62.938 103.09-62.937 164.379 0 11.703.811 23.281 2.407 34.67" style="stroke-width:15;stroke-linecap:round;stroke-linejoin:round;stroke-miterlimit:10;" fill="none" stroke="#ffffff" stroke-width="15" stroke-linecap="round" stroke-linejoin="round" stroke-miterlimit="10" data-original="#000000" opacity="1"></path><path d="M443.202 250.172c.819 45.739-14.756 91.719-46.722 128.263M387.746 119.425c26.464 26.464 43.462 58.865 50.994 92.956" style="stroke-width:15;stroke-linecap:round;stroke-linejoin:round;stroke-miterlimit:10;" fill="none" stroke="#ffffff" stroke-width="15" stroke-linecap="round" stroke-linejoin="round" stroke-miterlimit="10" data-original="#000000" opacity="1"></path><path d="M438.376 416.133c39.64-44.945 61.295-102.076 61.295-162.535 0-65.735-25.599-127.536-72.081-174.018M427.59 79.58h0C381.109 33.099 319.308 7.5 253.572 7.5c-48.166 0-94.21 13.76-133.673 39.392l-13.593-13.593c-5.176-5.176-14.015-2.808-15.91 4.263l-25.183 93.985c-1.895 7.071 4.576 13.542 11.647 11.647l93.985-25.183c7.071-1.895 9.439-10.734 4.263-15.91l-14.14-14.141c72.236-40.352 165.448-29.866 226.778 31.464h0M128.861 221.985c2.669-13.587 14.644-23.836 29.012-23.836 16.33 0 29.568 13.238 29.568 29.567 0 16.33-13.238 29.568-29.568 29.568" style="stroke-width:15;stroke-linecap:round;stroke-linejoin:round;stroke-miterlimit:10;" fill="none" stroke="#ffffff" stroke-width="15" stroke-linecap="round" stroke-linejoin="round" stroke-miterlimit="10" data-original="#000000" opacity="1"></path><path d="M157.873 257.283c16.33 0 29.568 13.238 29.568 29.567 0 16.33-13.238 29.567-29.568 29.567-14.93 0-27.276-11.066-29.282-25.443a29.836 29.836 0 0 1-.285-4.124M259.997 195.582s-35.398 26.329-41.107 76.046" style="stroke-width:15;stroke-linecap:round;stroke-linejoin:round;stroke-miterlimit:10;" fill="none" stroke="#ffffff" stroke-width="15" stroke-linecap="round" stroke-linejoin="round" stroke-miterlimit="10" data-original="#000000" opacity="1"></path><circle cx="251.94" cy="276.479" r="33.415" style="stroke-width:15;stroke-linecap:round;stroke-linejoin:round;stroke-miterlimit:10;" fill="none" stroke="#ffffff" stroke-width="15" stroke-linecap="round" stroke-linejoin="round" stroke-miterlimit="10" data-original="#000000" opacity="1"></circle><path d="M383.694 282.881c0 18.454-14.96 33.415-33.415 33.415-18.454 0-33.415-14.96-33.415-33.415v-53.438c0-18.454 14.96-33.415 33.415-33.415 18.454 0 33.415 14.96 33.415 33.415v53.438z" style="stroke-width:15;stroke-linecap:round;stroke-linejoin:round;stroke-miterlimit:10;" fill="none" stroke="#ffffff" stroke-width="15" stroke-linecap="round" stroke-linejoin="round" stroke-miterlimit="10" data-original="#000000" opacity="1"></path></g></svg>