<svg xmlns="http://www.w3.org/2000/svg" version="1.1" xmlns:xlink="http://www.w3.org/1999/xlink" width="512" height="512" x="0" y="0" viewBox="0 0 512 512" style="enable-background:new 0 0 512 512" xml:space="preserve" class=""><g><path d="M75.86 54.11c0-4.42 3.58-8.01 8.01-8.01h189.58c4.42 0 8.01 3.58 8.01 8.01s-3.58 8.01-8.01 8.01H83.87c-4.42 0-8.01-3.59-8.01-8.01zM83.87 113h189.58c4.42 0 8.01-3.58 8.01-8.01s-3.58-8.01-8.01-8.01H83.87c-4.42 0-8.01 3.58-8.01 8.01s3.59 8.01 8.01 8.01zm94.79 34.84H83.87c-4.42 0-8.01 3.58-8.01 8.01s3.58 8.01 8.01 8.01h94.79c4.42 0 8.01-3.58 8.01-8.01s-3.59-8.01-8.01-8.01zm301.37 335.61c-2.59 9.9-8.85 18.18-17.63 23.32a37.737 37.737 0 0 1-19.19 5.24c-3.24 0-6.51-.42-9.74-1.26-9.9-2.58-18.19-8.84-23.33-17.63l-45.35-77.35c-2.02-3.47-2.57-7.49-1.56-11.35.93-3.58 3.11-6.61 6.15-8.64l-16.83-28.72a123.24 123.24 0 0 1-39.82 6.62c-31.09 0-62.19-11.73-86.01-35.23-33.59-33.16-43.93-81.1-30.92-123.35h-63.77l-53.41 50.48a8.02 8.02 0 0 1-8.67 1.54 8.01 8.01 0 0 1-4.84-7.35V215.1H51.36c-11.39 0-20.65-9.25-20.65-20.62V20.61c0-11.37 9.26-20.62 20.65-20.62H306c11.37 0 20.62 9.25 20.62 20.62v109.05c27.17 3.03 52.36 15.02 72.11 34.52 48.05 47.42 48.57 125.1 1.15 173.15-1.84 1.87-3.74 3.66-5.67 5.38l16.8 28.68c3.27-1.67 6.99-2.09 10.59-1.14 3.88 1.02 7.12 3.48 9.12 6.93l45.34 77.33c5.15 8.77 6.55 19.05 3.97 28.94zM202.01 199.09c5.74-12.2 13.6-23.64 23.59-33.76 22.66-22.96 52.8-35.85 85-36.41V20.61c0-2.54-2.07-4.61-4.61-4.61H51.36c-2.51 0-4.63 2.11-4.63 4.61v173.88c0 2.5 2.12 4.61 4.63 4.61h21.77c4.42 0 8.01 3.58 8.01 8.01v34.08l42.22-39.9a8.003 8.003 0 0 1 5.5-2.19h73.15zm186.47 126.99c41.22-41.77 40.77-109.29-1-150.5-20.05-19.8-46.56-30.67-74.71-30.67h-.73c-28.42.19-55.07 11.44-75.04 31.67-41.22 41.74-40.78 109.25.98 150.48 41.76 41.21 109.28 40.77 150.5-.98zm-21.01 34.77 15.71 26.81 13.99-8.2-15.71-26.8c-4.51 3.06-9.18 5.79-13.99 8.19zm94.78 101.76-44.83-76.46-38.28 22.44 44.82 76.45c2.98 5.1 7.79 8.72 13.54 10.22s11.71.68 16.79-2.3c5.1-2.99 8.73-7.79 10.24-13.55s.69-11.72-2.28-16.8zm-56.59-211.9c.16 24.82-9.35 48.22-26.78 65.9-17.44 17.66-40.71 27.48-65.53 27.64h-.62c-24.6 0-47.76-9.5-65.28-26.8-17.66-17.44-27.48-40.71-27.64-65.52-.16-24.83 9.36-48.22 26.8-65.88 17.43-17.67 40.7-27.49 65.52-27.65 24.84-.2 48.22 9.35 65.88 26.79 17.67 17.42 27.49 40.7 27.65 65.52zm-16.02.11c-.13-20.55-8.26-39.81-22.89-54.23-14.5-14.31-33.66-22.17-54.01-22.17h-.52c-20.54.13-39.8 8.26-54.23 22.89-14.44 14.61-22.31 33.97-22.18 54.52.13 20.54 8.26 39.8 22.88 54.23 14.62 14.44 34.01 22.34 54.54 22.18 20.54-.13 39.8-8.26 54.24-22.88 14.43-14.63 22.31-34 22.17-54.54zm-24.32-35.86a8.01 8.01 0 0 0-11.33 0l-55.74 55.74-26.79-26.79c-3.13-3.13-8.2-3.13-11.33 0s-3.13 8.2 0 11.33l32.46 32.46c1.56 1.56 3.61 2.35 5.66 2.35s4.1-.78 5.66-2.35l61.4-61.4c3.13-3.15 3.13-8.22.01-11.34z" fill="#ffffff" opacity="1" data-original="#000000" class=""></path></g></svg>