<svg xmlns="http://www.w3.org/2000/svg" version="1.1" xmlns:xlink="http://www.w3.org/1999/xlink" width="512" height="512" x="0" y="0" viewBox="0 0 96 96" style="enable-background:new 0 0 512 512" xml:space="preserve" class=""><g><path d="M55.197 39.069a1.17 1.17 0 0 0 1.012-1.753l-3.079-5.332a1.168 1.168 0 0 0-2.024 0l-3.079 5.332a1.168 1.168 0 0 0 1.012 1.753h1.91v12.565a3.3 3.3 0 0 0-2.125 3.079 3.297 3.297 0 0 0 3.294 3.294 3.3 3.3 0 0 0 3.08-2.125h8.443v1.91a1.17 1.17 0 0 0 1.752 1.012l5.332-3.079a1.168 1.168 0 0 0 0-2.024l-5.332-3.079a1.168 1.168 0 0 0-1.753 1.012v1.91h-8.443a3.309 3.309 0 0 0-1.911-1.911V39.069zm10.781 15.644v-1.054l1.826 1.054-1.826 1.054zm-13.86.956c-.527 0-.956-.429-.956-.956s.429-.956.956-.956.956.429.956.956-.429.956-.956.956zm-1.054-18.938 1.054-1.826 1.054 1.826zm37.218 30.584a38.172 38.172 0 0 0 2.123-12.602 38.092 38.092 0 0 0-7.987-23.376l2.743-2.743 1.146 1.146a1.17 1.17 0 0 0 1.652 0l4.363-4.364a1.17 1.17 0 0 0 0-1.653l-9.216-9.216a1.168 1.168 0 0 0-1.653 0L77.09 18.87a1.168 1.168 0 0 0 0 1.652l1.146 1.146-2.743 2.743a38.12 38.12 0 0 0-17.252-7.495v-4.039h4.109a1.17 1.17 0 0 0 1.169-1.169v-7.54A1.167 1.167 0 0 0 62.351 3H41.884a1.17 1.17 0 0 0-1.169 1.169v7.54a1.17 1.17 0 0 0 1.169 1.169h4.109v4.039c-18.21 2.94-32.163 18.768-32.163 37.796 0 1.226.059 2.462.174 3.675a1.168 1.168 0 1 0 2.327-.221 36.432 36.432 0 0 1-.164-3.453c0-19.823 16.127-35.95 35.95-35.95a35.776 35.776 0 0 1 22.324 7.792c.056.12.13.234.229.333.158.158.35.257.552.306a36.227 36.227 0 0 1 4.414 4.414c.049.202.148.394.306.552.099.099.213.173.333.229a35.778 35.778 0 0 1 7.792 22.324c0 3.791-.584 7.508-1.738 11.073a14.565 14.565 0 0 0-3.6-1.712 31.957 31.957 0 0 0 1.392-9.361c0-17.647-14.357-32.004-32.004-32.004S20.114 37.065 20.114 54.713c0 1.236.071 2.48.211 3.698a1.169 1.169 0 0 0 2.322-.268 30.198 30.198 0 0 1-.171-2.262H26.4a1.17 1.17 0 0 0 0-2.338h-3.924c.601-15.43 13.042-27.871 28.473-28.473v3.924a1.17 1.17 0 0 0 2.338 0V25.07c15.43.601 27.872 13.042 28.473 28.473h-3.924a1.17 1.17 0 0 0 0 2.338h3.926a29.558 29.558 0 0 1-1.317 7.671 14.697 14.697 0 0 0-2.101-.153c-8.055 0-14.609 6.554-14.609 14.609 0 1.311.176 2.581.502 3.79a29.314 29.314 0 0 1-10.949 2.556V80.43a1.17 1.17 0 0 0-2.338 0v3.924a29.57 29.57 0 0 1-21.776-10.835 1.17 1.17 0 0 0-1.807 1.483c6.11 7.445 15.131 11.715 24.752 11.715 4.504 0 8.84-.914 12.909-2.713a14.654 14.654 0 0 0 2.119 3.374c-4.715 2.178-9.762 3.285-15.027 3.285-7.992 0-15.557-2.567-21.879-7.422a1.168 1.168 0 1 0-1.424 1.854C35.549 90.266 43.606 93 52.118 93c5.894 0 11.532-1.302 16.775-3.865a14.542 14.542 0 0 0 9.451 3.482c8.055 0 14.609-6.554 14.609-14.609a14.572 14.572 0 0 0-4.671-10.693zm-6.001-50.329 7.563 7.563-2.71 2.711-7.564-7.564zM43.053 5.338h18.129v5.203H43.053zm5.279 11.274v-3.734h7.573v3.734a38.53 38.53 0 0 0-7.573 0zm28.976 9.292 2.582-2.582 3.618 3.618-2.582 2.582a38.609 38.609 0 0 0-3.618-3.618zm1.035 64.375c-6.766 0-12.271-5.505-12.271-12.271s5.505-12.271 12.271-12.271 12.271 5.505 12.271 12.271c0 6.767-5.505 12.271-12.271 12.271zm7.706-16.803-8.127 10.495a1.17 1.17 0 0 1-1.663.191l-5.438-4.434a1.168 1.168 0 1 1 1.478-1.811l4.509 3.676 7.393-9.547a1.168 1.168 0 1 1 1.848 1.43zM3.048 62.984a1.17 1.17 0 0 1 1.169-1.169h28.131a1.17 1.17 0 0 1 0 2.338H4.217a1.17 1.17 0 0 1-1.169-1.169zm11.151 5.892h21.017a1.17 1.17 0 0 1 0 2.338H14.199a1.17 1.17 0 0 1 0-2.338zm-11.151 8.23a1.17 1.17 0 0 1 1.169-1.169h21.017a1.17 1.17 0 0 1 0 2.338H4.217a1.169 1.169 0 0 1-1.169-1.169zm16.974 8.23H4.217a1.17 1.17 0 0 1 0-2.338h15.805a1.17 1.17 0 0 1 0 2.338zm11.296 6.373a1.17 1.17 0 0 1-1.169 1.169H14.344a1.17 1.17 0 0 1 0-2.338h15.805a1.17 1.17 0 0 1 1.169 1.169z" fill="#ffffff" opacity="1" data-original="#000000" class=""></path></g></svg>