<svg xmlns="http://www.w3.org/2000/svg" version="1.1" xmlns:xlink="http://www.w3.org/1999/xlink" width="512" height="512" x="0" y="0" viewBox="0 0 512 511" style="enable-background:new 0 0 512 512" xml:space="preserve" class=""><g><path d="m247.113 174.648 13.239 10.88a7.476 7.476 0 0 0 4.761 1.706 7.492 7.492 0 0 0 5.078-1.98l34.95-32.125a7.492 7.492 0 0 0 .445-10.59 7.497 7.497 0 0 0-10.594-.441l-30.152 27.714-8.2-6.742a7.5 7.5 0 0 0-10.554 1.032 7.487 7.487 0 0 0 1.027 10.546zm0 0" fill="#ffffff" opacity="1" data-original="#000000" class=""></path><path d="M186.832 166.68c0 46.48 37.852 84.297 84.375 84.297 46.508 0 84.348-37.817 84.348-84.297 0-46.485-37.84-84.301-84.348-84.301-46.523 0-84.375 37.816-84.375 84.3zm84.375-69.313c38.242 0 69.352 31.094 69.352 69.313s-31.11 69.312-69.352 69.312c-38.254 0-69.379-31.094-69.379-69.312s31.125-69.313 69.379-69.313zm0 0" fill="#ffffff" opacity="1" data-original="#000000" class=""></path><path d="M479.84.5H62.574c-17.73 0-32.16 15.016-32.16 33.473v185.586H17.137C7.687 219.559 0 227.254 0 236.715v252.633c0 9.457 7.688 17.152 17.137 17.152H175.14c9.464 0 17.164-7.695 17.164-17.156v-47.242h207.683c7.477 0 13.563-6.082 13.563-13.555v-16.715c0-16.68-13.586-30.246-30.29-30.246h-14.445l-5.949-16.629H479.84c17.734 0 32.16-15.016 32.16-33.473V33.973C512 15.516 497.574.5 479.84.5zM45.41 33.973c0-10.192 7.7-18.485 17.164-18.485H479.84c9.465 0 17.164 8.29 17.164 18.485V316.28h-304.7v-15.297h275.801c7.622 0 13.82-6.21 13.82-13.84V46.215c0-7.843-5.808-13.984-13.23-13.984l-181.675.141a7.494 7.494 0 1 0 .008 14.988h.003l179.899-.136v238.773H192.305v-49.281c0-9.461-7.7-17.156-17.164-17.156H75.488v-172.2l180.504-.14a7.495 7.495 0 1 0-.008-14.989h-.004l-181.667.141c-7.622 0-13.82 6.211-13.82 13.844v173.344H45.41zM17.137 234.547H175.14c1.175 0 2.168.992 2.168 2.168v12.82h-65.524a7.494 7.494 0 1 0 0 14.988h65.524V461.82H14.996V264.523h63a7.495 7.495 0 1 0 0-14.988h-63v-12.82c0-1.176.98-2.168 2.14-2.168zM175.14 491.512H17.137c-1.16 0-2.14-.992-2.14-2.168v-12.535h162.312v12.535c0 1.156-1.012 2.168-2.168 2.168zm223.414-79.68v15.285h-206.25v-30.543h171.203c.008 0 .02.004.027.004.016 0 .028-.004.043-.004h19.684c8.433 0 15.293 6.844 15.293 15.258zm-45.664-30.246H192.305v-16.629H346.94zm126.949-31.617H192.305v-18.7h304.699v.215c0 10.192-7.7 18.485-17.164 18.485zm0 0" fill="#ffffff" opacity="1" data-original="#000000" class=""></path><path d="m75.172 372.469 8.93 7.308a7.492 7.492 0 0 0 4.75 1.696 7.478 7.478 0 0 0 5.078-1.98l23.5-21.618a7.488 7.488 0 0 0 .437-10.59c-2.8-3.043-7.543-3.238-10.594-.437l-18.707 17.21-3.89-3.187a7.505 7.505 0 0 0-10.555 1.05 7.495 7.495 0 0 0 1.05 10.548zm0 0" fill="#ffffff" opacity="1" data-original="#000000" class=""></path><path d="M34.809 364.148c0 32.66 26.586 59.227 59.261 59.227 32.672 0 59.258-26.566 59.258-59.227 0-32.656-26.582-59.226-59.258-59.226-32.675 0-59.261 26.57-59.261 59.226zM94.07 319.91c24.407 0 44.262 19.844 44.262 44.238 0 24.395-19.855 44.239-44.262 44.239-24.41 0-44.265-19.844-44.265-44.239 0-24.39 19.855-44.238 44.265-44.238zm0 0" fill="#ffffff" opacity="1" data-original="#000000" class=""></path></g></svg>