<svg xmlns="http://www.w3.org/2000/svg" version="1.1" xmlns:xlink="http://www.w3.org/1999/xlink" width="512" height="512" x="0" y="0" viewBox="0 0 160 160" style="enable-background:new 0 0 512 512" xml:space="preserve" class=""><g><path d="M96.197 42.667h1.389l3.421 9.977a2.501 2.501 0 0 0 4.731-1.623l-2.865-8.355h8.858l10.509 5.856a2.503 2.503 0 0 0 3.718-2.184V21.654a2.5 2.5 0 0 0-3.716-2.183l-10.509 5.856H96.197c-2.227 0-4.122 1.737-4.313 3.939a4.112 4.112 0 0 0-.021.394v8.674a4.34 4.34 0 0 0 4.334 4.333zm18.683-13.372 6.077-3.387v16.175l-6.077-3.386zm-18.016 6.409v-5.377h13.016v7.341H96.864z" fill="#ffffff" opacity="1" data-original="#000000" class=""></path><path d="M150.985 18.614h-10.324v7h6.824v76.861H12.515V25.614h62.646v-7H9.015a3.5 3.5 0 0 0-3.5 3.5V124.5a3.5 3.5 0 0 0 3.5 3.5H57.03v20.146H43.805a3.5 3.5 0 1 0 0 7H116.195a3.5 3.5 0 1 0 0-7h-13.433V128h48.223a3.5 3.5 0 0 0 3.5-3.5V22.114a3.5 3.5 0 0 0-3.5-3.5zM95.763 148.146H64.029V128h31.733zM147.485 121H12.515v-11.524h134.971z" fill="#ffffff" opacity="1" data-original="#000000" class=""></path><path d="M67.975 48.896H39.514c-1.056-3.234-4.097-5.58-7.68-5.58-3.582 0-6.623 2.345-7.679 5.58h-2.141a2.5 2.5 0 1 0 0 5h2.141c1.056 3.235 4.097 5.58 7.679 5.58 3.583 0 6.624-2.345 7.68-5.58h28.461a2.5 2.5 0 1 0 0-5zm-36.141 5.58c-1.698 0-3.08-1.382-3.08-3.08s1.381-3.08 3.08-3.08 3.08 1.381 3.08 3.08-1.381 3.08-3.08 3.08zM67.975 66.896h-7.941c-1.056-3.234-4.097-5.58-7.68-5.58-3.582 0-6.623 2.345-7.679 5.58h-22.66a2.5 2.5 0 1 0 0 5h22.661c1.056 3.234 4.097 5.58 7.679 5.58 3.583 0 6.624-2.346 7.68-5.58h7.941a2.5 2.5 0 1 0-.001-5zm-15.621 5.58c-1.698 0-3.08-1.382-3.08-3.08s1.381-3.08 3.08-3.08 3.08 1.381 3.08 3.08-1.381 3.08-3.08 3.08zM67.975 84.896H43.797c-1.056-3.234-4.097-5.58-7.68-5.58-3.582 0-6.623 2.346-7.679 5.58h-6.424a2.5 2.5 0 1 0 0 5h6.424c1.056 3.234 4.097 5.58 7.679 5.58 3.583 0 6.624-2.346 7.68-5.58h24.177a2.5 2.5 0 0 0 .001-5zm-31.857 5.58c-1.698 0-3.08-1.382-3.08-3.08s1.381-3.08 3.08-3.08 3.08 1.382 3.08 3.08-1.382 3.08-3.08 3.08zM88.559 65.354h7.921v13.473a3.499 3.499 0 0 0 6.021 2.427l15.301-15.899h9.461c6.01 0 10.898-4.889 10.898-10.898V15.752c0-6.009-4.889-10.898-10.898-10.898H88.559c-6.009 0-10.897 4.889-10.897 10.898v38.704c-.001 6.01 4.888 10.898 10.897 10.898zm-3.898-49.602a3.902 3.902 0 0 1 3.897-3.898h38.704a3.903 3.903 0 0 1 3.898 3.898v38.704a3.903 3.903 0 0 1-3.898 3.898h-10.95a3.5 3.5 0 0 0-2.521 1.073l-10.312 10.715v-8.288a3.5 3.5 0 0 0-3.5-3.5h-11.42a3.902 3.902 0 0 1-3.897-3.898z" fill="#ffffff" opacity="1" data-original="#000000" class=""></path></g></svg>