<svg xmlns="http://www.w3.org/2000/svg" version="1.1" xmlns:xlink="http://www.w3.org/1999/xlink" width="512" height="512" x="0" y="0" viewBox="0 0 64 64" style="enable-background:new 0 0 512 512" xml:space="preserve" class=""><g><path d="M2 4v52h18.545l.755.755 3.595-2.696a13.835 13.835 0 0 0 3.603 1.499L29.133 60h5.734l.635-4.442a13.835 13.835 0 0 0 3.603-1.5l3.595 2.697.755-.755H62V4zm36.606 48.014a11.908 11.908 0 0 1-4.196 1.744l-.691.14L33.133 58h-2.266l-.586-4.103-.691-.14a11.908 11.908 0 0 1-4.196-1.743l-.587-.389L21.64 54h-.267l-1.488-1.487 2.49-3.32-.389-.589a11.884 11.884 0 0 1-1.744-4.194l-.14-.691L16 43.133v-2.266l4.103-.586.14-.691c.303-1.491.89-2.903 1.743-4.194l.389-.588-2.49-3.32 1.602-1.603 3.32 2.49.589-.389a11.884 11.884 0 0 1 4.194-1.744l.691-.14.586-4.102h2.266l.586 4.103.691.14c1.491.303 2.903.89 4.194 1.743l.588.389 3.32-2.49 1.603 1.602-2.49 3.32.389.589a11.884 11.884 0 0 1 1.744 4.194l.14.691 4.102.586v2.266l-4.103.586-.14.691a11.884 11.884 0 0 1-1.743 4.194l-.389.588 2.49 3.32L42.627 54h-.267l-3.167-2.375zm6.952-13.516a13.845 13.845 0 0 0-1.498-3.602l2.696-3.596-4.056-4.056-3.596 2.696a13.845 13.845 0 0 0-3.602-1.498L34.867 24h-5.734l-.635 4.442a13.845 13.845 0 0 0-3.602 1.498L21.3 27.244 17.244 31.3l2.696 3.596a13.845 13.845 0 0 0-1.498 3.602L14 39.133v5.734l4.442.635c.316 1.224.8 2.394 1.441 3.498H9V21h46v28H44.117a13.834 13.834 0 0 0 1.44-3.498L50 44.867v-5.734zM60 54H45.456l1.3-1.3L45.48 51H57V19H7v32h11.519l-1.275 1.7 1.3 1.3H4V16h56zM4 14V6h56v8zm40-5v2H25V9zM16 9h6v2h-6zM7 9h6v2H7zm25 26c-3.86 0-7 3.14-7 7s3.14 7 7 7 7-3.14 7-7-3.14-7-7-7zm0 12c-2.757 0-5-2.243-5-5s2.243-5 5-5 5 2.243 5 5-2.243 5-5 5z" fill="#ffffff" opacity="1" data-original="#000000"></path></g></svg>